Coordinates
version=1
nRows=17
nColumns=24
inDegrees=yes

Units are S.I. units (second, meters, Newtons, ...)
Angles are in degrees.

endheader
time	pelvis_tilt	pelvis_list	pelvis_rotation	pelvis_tx	pelvis_ty	pelvis_tz	hip_flexion_r	hip_adduction_r	hip_rotation_r	knee_angle_r	ankle_angle_r	subtalar_angle_r	mtp_angle_r	hip_flexion_l	hip_adduction_l	hip_rotation_l	knee_angle_l	ankle_angle_l	subtalar_angle_l	mtp_angle_l	lumbar_extension	lumbar_bending	lumbar_rotation
      6.35000000	      0.20667869	      4.87583145	     -5.05092336	     -0.56795270	      0.92901608	      0.23750026	     -1.07616754	     -8.07110303	     -0.15742115	    -55.31353521	    -19.11079382	      1.91237008	      0.00000000	     22.38342552	      8.26028109	     -3.51677205	    -25.66385045	      7.07200470	    -18.39797758	      0.00000000	    -21.10209645	    -10.65629505	      1.45348313
      6.36000000	      0.13159868	      5.38485628	     -5.07879476	     -0.55566641	      0.93049485	      0.23625039	      1.28600697	     -8.61221226	      0.13144935	    -58.11687675	    -18.67524464	      0.45441777	      0.00000000	     21.42860703	      8.97127612	     -3.50034497	    -25.16155476	      7.69301667	    -18.29370081	      0.00000000	    -21.04063939	    -11.10333738	      0.95111740
      6.37000000	      0.26167933	      5.71191664	     -4.96318386	     -0.54346228	      0.93240725	      0.23481819	      3.29004255	     -8.96487253	      0.23226668	    -60.48334991	    -17.66161793	     -0.75699658	      0.00000000	     20.19511556	      9.58880333	     -3.19884340	    -24.60253045	      8.29211738	    -18.19709184	      0.00000000	    -21.28663387	    -11.28677945	      0.26505342
      6.38000000	      0.22262982	      5.89621335	     -4.90432442	     -0.53146641	      0.93419682	      0.23339999	      5.46115921	     -9.12574001	      0.41809742	    -62.54270040	    -16.01340605	     -1.55871718	      0.00000000	     19.11429037	     10.03711904	     -2.86107558	    -23.98143578	      8.68526532	    -18.35019159	      0.00000000	    -21.33326878	    -11.28714339	     -0.27826403
      6.39000000	      0.28864605	      5.91322238	     -4.74675329	     -0.51956725	      0.93627606	      0.23193044	      7.40009913	     -9.10363541	      0.43498233	    -64.17073772	    -14.10785340	     -2.18166010	      0.00000000	     17.87493882	     10.33780515	     -2.38746136	    -23.32793540	      9.12683046	    -18.37599444	      0.00000000	    -21.54764757	    -11.07021439	     -0.88507882
      6.40000000	      0.38394377	      5.84570526	     -4.55272507	     -0.50774735	      0.93847399	      0.23047422	      9.22727170	     -8.98248025	      0.37100959	    -65.42483908	    -11.98009129	     -2.55312850	      0.00000000	     16.56301733	     10.53795422	     -1.89132128	    -22.61622522	      9.55760670	    -18.30496028	      0.00000000	    -21.80528175	    -10.75143147	     -1.50612543
      6.41000000	      0.45634885	      5.66909553	     -4.30213131	     -0.49605202	      0.94067681	      0.22893547	     10.99019428	     -8.73496378	      0.23354308	    -66.31731818	     -9.66704711	     -2.57805681	      0.00000000	     15.25040375	     10.61376737	     -1.39064566	    -21.86399838	      9.95046418	    -18.24183434	      0.00000000	    -22.04818786	    -10.27821183	     -2.08494726
      6.42000000	      0.51885470	      5.45816299	     -4.01979138	     -0.48442419	      0.94283190	      0.22742808	     12.68970288	     -8.44622586	      0.02235427	    -66.87151772	     -7.34227653	     -2.44931247	      0.00000000	     13.92557901	     10.62506129	     -0.91653789	    -21.06681469	     10.32280706	    -18.10449736	      0.00000000	    -22.27562049	     -9.76427278	     -2.65456479
      6.43000000	      0.57395206	      5.23004899	     -3.70699685	     -0.47286168	      0.94489479	      0.22592382	     14.32202680	     -8.14139884	     -0.25332315	    -67.09787950	     -5.07266584	     -2.18790896	      0.00000000	     12.59478397	     10.59328769	     -0.47778391	    -20.23213826	     10.68010778	    -17.92303856	      0.00000000	    -22.48729373	     -9.22515454	     -3.23043771
      6.44000000	      0.63419499	      5.00910855	     -3.35603056	     -0.46132269	      0.94683671	      0.22440567	     15.86542748	     -7.86082933	     -0.60948742	    -67.00309972	     -2.90189365	     -1.86173344	      0.00000000	     11.24489500	     10.55066472	     -0.05665291	    -19.35964311	     11.00751626	    -17.72807682	      0.00000000	    -22.68822015	     -8.68501927	     -3.83551140
      6.45000000	      0.67729426	      4.77504937	     -3.00538887	     -0.44983920	      0.94860874	      0.22297243	     17.34783084	     -7.56353053	     -1.00269869	    -66.58842779	     -0.86595429	     -1.52118744	      0.00000000	      9.91327401	     10.46644551	      0.37487260	    -18.47964890	     11.33091020	    -17.49645799	      0.00000000	    -22.85519581	     -8.14838837	     -4.35892860
      6.46000000	      0.72614071	      4.55645519	     -2.61700698	     -0.43840189	      0.95021453	      0.22155575	     18.72961371	     -7.30844525	     -1.48768926	    -65.85261763	      1.02558951	     -1.22742462	      0.00000000	      8.58143442	     10.38375147	      0.85879818	    -17.60244999	     11.59726218	    -17.28290863	      0.00000000	    -23.02272737	     -7.63686837	     -4.86993809
      6.47000000	      0.73796738	      4.33483393	     -2.24869898	     -0.42699833	      0.95156025	      0.22022123	     20.06678241	     -7.05010208	     -1.98661959	    -64.80606362	      2.73338484	     -0.95200381	      0.00000000	      7.29794270	     10.27429768	      1.33647158	    -16.72744590	     11.87804932	    -17.09830482	      0.00000000	    -23.13059662	     -7.13453992	     -5.34013325
      6.48000000	      0.71047840	      4.12564249	     -1.88436362	     -0.41561313	      0.95263170	      0.21894884	     21.35032384	     -6.81700499	     -2.52428549	    -63.44596498	      4.24076521	     -0.71911594	      0.00000000	      6.06567027	     10.15896245	      1.81406354	    -15.85589264	     12.15647199	    -16.95370781	      0.00000000	    -23.17926815	     -6.65780417	     -5.78940253
      6.49000000	      0.66629114	      3.93806172	     -1.49131989	     -0.40428251	      0.95348114	      0.21775414	     22.53050150	     -6.62236624	     -3.12780930	    -61.74953948	      5.55593802	     -0.57053301	      0.00000000	      4.86822919	     10.04677798	      2.34911273	    -15.00859266	     12.38682745	    -16.82963640	      0.00000000	    -23.22009435	     -6.22528981	     -6.23313754
      6.50000000	      0.59595285	      3.78078540	     -1.10456033	     -0.39292146	      0.95409014	      0.21665591	     23.61809860	     -6.46778315	     -3.76031949	    -59.72635117	      6.61933453	     -0.47190174	      0.00000000	      3.69750980	      9.94281394	      2.86662001	    -14.14972947	     12.59676529	    -16.71471250	      0.00000000	    -23.21938997	     -5.84429395	     -6.65473697
      6.51000000	      0.51990072	      3.66703684	     -0.70957625	     -0.38154285	      0.95445508	      0.21561584	     24.58374699	     -6.37897536	     -4.45027594	    -57.38308989	      7.44771101	     -0.42150809	      0.00000000	      2.53160286	      9.86458417	      3.36544929	    -13.27998232	     12.81438621	    -16.61470963	      0.00000000	    -23.20922013	     -5.53066148	     -7.05075320
